<?xml version="1.0" encoding="UTF-8" standalone="no"?>
<!DOCTYPE svg PUBLIC "-//W3C//DTD SVG 1.1//EN" "http://www.w3.org/Graphics/SVG/1.1/DTD/svg11.dtd">
<svg width="100%" height="100%" viewBox="0 0 17 17" version="1.1" xmlns="http://www.w3.org/2000/svg" xmlns:xlink="http://www.w3.org/1999/xlink" xml:space="preserve" xmlns:serif="http://www.serif.com/" style="fill-rule:evenodd;clip-rule:evenodd;stroke-linejoin:round;stroke-miterlimit:2;">
    <g transform="matrix(1,0,0,1,0.6631,0.54133)">
        <rect x="0" y="0" width="15.674" height="14.248" style="fill-opacity:0;"/>
        <path d="M2.49,14.248L12.822,14.248C14.492,14.248 15.313,13.428 15.313,11.787L15.313,2.471C15.313,0.83 14.492,0.01 12.822,0.01L2.49,0.01C0.83,0.01 0,0.83 0,2.471L0,11.787C0,13.428 0.83,14.248 2.49,14.248ZM2.354,12.832C1.748,12.832 1.406,12.51 1.406,11.875L1.406,4.531C1.406,3.896 1.748,3.574 2.354,3.574L12.949,3.574C13.555,3.574 13.906,3.896 13.906,4.531L13.906,11.875C13.906,12.51 13.555,12.832 12.949,12.832L2.354,12.832Z" style="fill-opacity:0.85;fill-rule:nonzero;"/>
        <path d="M3.74,6.455L11.582,6.455C11.885,6.455 12.109,6.221 12.109,5.918C12.109,5.625 11.885,5.4 11.582,5.4L3.74,5.4C3.428,5.4 3.203,5.625 3.203,5.918C3.203,6.221 3.428,6.455 3.74,6.455ZM3.74,8.73L11.582,8.73C11.885,8.73 12.109,8.506 12.109,8.213C12.109,7.91 11.885,7.676 11.582,7.676L3.74,7.676C3.428,7.676 3.203,7.91 3.203,8.213C3.203,8.506 3.428,8.73 3.74,8.73ZM3.74,11.006L8.652,11.006C8.955,11.006 9.18,10.781 9.18,10.488C9.18,10.186 8.955,9.951 8.652,9.951L3.74,9.951C3.428,9.951 3.203,10.186 3.203,10.488C3.203,10.781 3.428,11.006 3.74,11.006Z" style="fill-opacity:0.85;fill-rule:nonzero;"/>
    </g>
</svg>
