<?xml version="1.0" encoding="UTF-8" standalone="no"?>
<!DOCTYPE svg PUBLIC "-//W3C//DTD SVG 1.1//EN" "http://www.w3.org/Graphics/SVG/1.1/DTD/svg11.dtd">
<svg width="100%" height="100%" viewBox="0 0 17 17" version="1.1" xmlns="http://www.w3.org/2000/svg" xmlns:xlink="http://www.w3.org/1999/xlink" xml:space="preserve" xmlns:serif="http://www.serif.com/" style="fill-rule:evenodd;clip-rule:evenodd;stroke-linejoin:round;stroke-miterlimit:2;">
    <g transform="matrix(1,0,0,1,0.4336,0.3903)">
        <rect x="0" y="0" width="16.133" height="15.772" style="fill-opacity:0;"/>
        <path d="M7.881,15.762C12.188,15.762 15.772,12.188 15.772,7.881C15.772,3.574 12.178,0 7.871,0C3.574,0 0,3.574 0,7.881C0,12.188 3.584,15.762 7.881,15.762ZM7.881,14.277C4.336,14.277 1.504,11.436 1.504,7.881C1.504,4.326 4.326,1.484 7.871,1.484C11.426,1.484 14.277,4.326 14.277,7.881C14.277,11.436 11.436,14.277 7.881,14.277Z" style="fill-opacity:0.85;fill-rule:nonzero;"/>
        <path d="M3.975,8.75L7.871,8.75C8.213,8.75 8.477,8.486 8.477,8.154L8.477,3.125C8.477,2.783 8.213,2.52 7.871,2.52C7.539,2.52 7.275,2.783 7.275,3.125L7.275,7.549L3.975,7.549C3.633,7.549 3.379,7.813 3.379,8.154C3.379,8.486 3.633,8.75 3.975,8.75Z" style="fill-opacity:0.85;fill-rule:nonzero;"/>
    </g>
</svg>
