<?xml version="1.0" encoding="UTF-8" standalone="no"?>
<!DOCTYPE svg PUBLIC "-//W3C//DTD SVG 1.1//EN" "http://www.w3.org/Graphics/SVG/1.1/DTD/svg11.dtd">
<svg width="100%" height="100%" viewBox="0 0 16 15" version="1.1" xmlns="http://www.w3.org/2000/svg" xmlns:xlink="http://www.w3.org/1999/xlink" xml:space="preserve" xmlns:serif="http://www.serif.com/" style="fill-rule:evenodd;clip-rule:evenodd;stroke-linejoin:round;stroke-miterlimit:2;">
    <g transform="matrix(0.870181,0,0,0.870181,1.14305,0.959168)">
        <rect x="0" y="0" width="15.093" height="14.777" style="fill-opacity:0;"/>
        <path d="M13.366,10.39C13.948,10.39 14.316,10.03 14.331,9.427L14.432,1.315C14.433,1.278 14.435,1.238 14.435,1.208C14.435,0.565 13.971,0.154 13.359,0.154C12.748,0.154 12.28,0.565 12.28,1.208C12.28,1.238 12.282,1.278 12.284,1.315L12.401,9.427C12.416,10.03 12.782,10.39 13.366,10.39ZM13.358,14.777C14.122,14.777 14.731,14.166 14.731,13.424C14.731,12.669 14.122,12.074 13.358,12.074C12.606,12.074 11.982,12.669 11.982,13.424C11.982,14.166 12.606,14.777 13.358,14.777Z" style="fill:rgb(255,0,0);fill-opacity:0.85;fill-rule:nonzero;"/>
        <path d="M7.37,10.39C7.961,10.39 8.32,10.03 8.336,9.427L8.445,1.315C8.446,1.278 8.448,1.238 8.448,1.208C8.448,0.565 7.983,0.154 7.364,0.154C6.753,0.154 6.285,0.565 6.285,1.208C6.285,1.238 6.287,1.278 6.288,1.315L6.413,9.427C6.429,10.03 6.787,10.39 7.37,10.39ZM7.362,14.777C8.127,14.777 8.736,14.166 8.736,13.424C8.736,12.669 8.127,12.074 7.362,12.074C6.611,12.074 5.995,12.669 5.995,13.424C5.995,14.166 6.611,14.777 7.362,14.777Z" style="fill:rgb(255,0,0);fill-opacity:0.85;fill-rule:nonzero;"/>
        <path d="M1.383,10.39C1.965,10.39 2.325,10.03 2.34,9.427L2.449,1.315C2.451,1.278 2.453,1.238 2.453,1.208C2.453,0.565 1.988,0.154 1.377,0.154C0.766,0.154 0.298,0.565 0.298,1.208C0.298,1.238 0.3,1.278 0.301,1.315L0.418,9.427C0.433,10.03 0.8,10.39 1.383,10.39ZM1.375,14.777C2.132,14.777 2.741,14.166 2.741,13.424C2.741,12.669 2.132,12.074 1.375,12.074C0.615,12.074 0,12.669 0,13.424C0,14.166 0.615,14.777 1.375,14.777Z" style="fill:rgb(255,0,0);fill-opacity:0.85;fill-rule:nonzero;"/>
    </g>
</svg>
