<?xml version="1.0" encoding="UTF-8" standalone="no"?>
<!DOCTYPE svg PUBLIC "-//W3C//DTD SVG 1.1//EN" "http://www.w3.org/Graphics/SVG/1.1/DTD/svg11.dtd">
<svg width="100%" height="100%" viewBox="0 0 35 35" version="1.1" xmlns="http://www.w3.org/2000/svg" xmlns:xlink="http://www.w3.org/1999/xlink" xml:space="preserve" xmlns:serif="http://www.serif.com/" style="fill-rule:evenodd;clip-rule:evenodd;stroke-linejoin:round;stroke-miterlimit:2;">
    <g transform="matrix(1,0,0,1,1.94145,4.53615)">
        <rect x="0" y="0" width="31.117" height="25.928" style="fill-opacity:0;"/>
        <path d="M17.249,25.917C18.047,25.917 18.683,25.599 19.469,24.869L30.399,14.582C30.91,14.106 31.117,13.48 31.117,12.958C31.117,12.412 30.913,11.814 30.402,11.323L19.469,1.134C18.595,0.323 18.063,0 17.278,0C16.109,0 15.255,0.926 15.255,2.051L15.255,6.826L14.954,6.826C5.162,6.826 0.991,13.237 0.991,23.061C0.991,24.895 1.791,25.853 2.8,25.853C3.545,25.853 4.301,25.642 4.875,24.582C7.127,20.527 10.121,19.116 14.954,19.116L15.255,19.116L15.255,23.952C15.255,25.077 16.109,25.917 17.249,25.917Z" style="fill-opacity:0.85;fill-rule:nonzero;"/>
    </g>
</svg>
